<svg width="117" height="46" viewBox="0 0 117 46" fill="none" xmlns="http://www.w3.org/2000/svg">
<path d="M110.68 31.9085H116.367V9.66374H110.68V31.9085ZM110.098 3.57321C110.098 1.60973 111.653 0.000244141 113.598 0.000244141C115.494 0.000244141 117 1.60973 117 3.57321C117 5.53669 115.492 7.14617 113.598 7.14617C111.653 7.14617 110.098 5.58726 110.098 3.57321ZM90.7032 9.66374L97.9935 31.9085H102.27L109.514 9.66374H106.112C104.362 9.66374 103.876 9.76488 103.196 12.2297L100.281 22.6979L97.2184 12.2297C96.5388 9.9144 96.2946 9.66374 94.2538 9.66374H90.7032ZM75.0012 25.1143C75.0012 22.6979 77.0908 21.9437 79.4735 21.9437C81.3699 21.9437 83.0221 22.146 84.5766 22.5484V24.4107C83.897 26.8777 81.5143 28.186 78.9872 28.186C76.9464 28.1838 75.0012 27.2273 75.0012 25.1143ZM69.3142 25.1143C69.3142 29.9956 72.523 32.412 77.4327 32.412C81.079 32.412 84.0435 31.0532 85.4536 28.3861L86.1332 31.9085H89.8282V17.1109C89.8282 11.625 86.8637 8.90737 80.4461 8.90737C78.0635 8.90737 75.5364 9.05908 73.3002 9.5626C70.9664 10.0661 70.9664 10.9214 70.9664 12.7332V15.2486C72.9583 14.545 76.4113 13.738 79.6179 13.738C82.7779 13.738 84.5766 14.8946 84.5766 18.0168V18.5709C83.0688 18.1685 81.2722 17.9156 79.3758 17.9662C74.0307 18.0674 69.3142 19.6285 69.3142 25.1143ZM60.3229 31.9085H66.3008V1.6603H60.3229V31.9085ZM50.017 31.9085H55.995V1.6603H50.017V31.9085ZM41.7541 35.8332L44.0879 34.525C45.0117 34.0215 45.6424 33.7202 46.1287 33.7202C46.9059 33.7202 47.3434 34.3249 47.9762 35.1296C49.6284 37.1921 52.5951 40.3143 58.1356 40.3143C63.676 40.3143 66.6427 37.1943 68.2949 35.1296C68.9277 34.3249 69.3652 33.7202 70.1424 33.7202C70.6287 33.7202 71.2594 34.0215 72.1832 34.525L74.517 35.8332C70.4333 43.5838 64.3089 46.0002 58.1356 46.0002C51.9622 46.0002 45.8378 43.5838 41.7541 35.8332ZM28.8234 19.2767C29.1144 16.0049 31.4482 14.0414 35.1433 14.0414C38.4965 14.0414 40.5882 16.0555 40.5882 19.2767H28.8234ZM22.992 20.6861C22.992 28.3861 27.7064 32.7154 36.1159 32.7154C38.4986 32.7154 40.3928 32.5131 42.0938 32.1107C44.2323 31.6072 44.5721 31.1543 44.5721 28.9402V26.3742C42.2871 27.179 39.4202 27.6319 36.891 27.6319C32.2722 27.6319 29.5518 26.1214 29.0167 23.3048H45.8356C45.9822 22.4495 46.1266 20.9389 46.1266 20.0836C46.1266 12.8871 42.2383 8.91177 35.1412 8.91177C27.7553 8.90737 22.992 13.5379 22.992 20.6861ZM-0.000244141 16.2556C-0.000244141 21.8932 4.95837 22.5968 9.91487 23.5027C13.3169 24.1073 14.6293 24.358 14.6293 25.8179C14.6293 27.3285 12.7329 27.8804 10.3035 27.8804C6.17095 27.8804 2.91546 27.1768 0.339533 25.9674V28.6345C0.339533 30.598 0.339533 31.2005 2.86662 31.8557C5.10278 32.4604 7.48546 32.711 9.86602 32.711C16.2347 32.711 20.5605 30.3452 20.5605 25.5651C20.5605 20.0286 16.428 19.2745 10.6921 18.1663C6.99703 17.5111 5.88002 17.3616 5.88002 15.9016C5.88002 14.5933 7.29009 13.8392 10.4012 13.8392C13.2213 13.8392 17.4983 14.7956 18.8595 15.5498V12.8343C18.8595 10.8709 18.8106 10.319 16.3324 9.66374C14.436 9.16022 12.1043 8.90957 10.1591 8.90957C3.74155 8.90737 -0.000244141 11.5261 -0.000244141 16.2556Z" fill="#EC8A90"/>
</svg>
